<?xml version="1.0" encoding="UTF-8"?> <svg xmlns="http://www.w3.org/2000/svg" width="45" height="61" viewBox="0 0 45 61" fill="none"> <path fill-rule="evenodd" clip-rule="evenodd" d="M34.1611 5.73292C34.119 5.78112 34.0608 5.86679 34.0317 5.9232C33.9498 6.08207 33.7835 6.78025 33.7247 7.21175C33.6565 7.7125 33.4841 8.05658 33.2108 8.23739C33.0177 8.36524 32.9553 8.37711 32.3449 8.40236C31.3464 8.44375 31.342 8.44891 31.1628 9.78961C31.0375 10.7276 30.9876 10.8856 30.738 11.1355C30.5166 11.3573 30.3396 11.4067 29.7658 11.4067C29.6095 11.4067 29.444 11.4348 29.3978 11.4693C29.3516 11.5037 29.2539 11.701 29.1806 11.9077C28.8698 12.7843 28.4448 13.7577 28.2471 14.0458C28.1021 14.2573 27.948 14.4081 27.761 14.5218C27.499 14.681 27.4655 14.6882 26.9844 14.6882C26.6754 14.6882 26.4201 14.6622 26.3218 14.6207C26.0821 14.5195 25.8273 14.5277 25.7004 14.6407C25.6402 14.6944 25.3149 15.0652 24.9777 15.4647C24.1382 16.4593 23.7816 16.8216 23.4054 17.0627C23.1118 17.2508 23.056 17.2683 22.7504 17.2683C22.4538 17.2683 22.3905 17.25 22.1874 17.1055C22.0615 17.0159 21.8295 16.7961 21.6718 16.617C21.514 16.4379 21.3566 16.2612 21.3221 16.2244C21.2698 16.1688 21.2264 16.1735 21.0649 16.2521C20.9048 16.33 20.1118 16.9062 19.7162 17.232C19.4454 17.4551 18.9938 17.7682 18.806 17.8631C18.4993 18.0181 17.9073 18.0123 17.564 17.8509C17.2984 17.7261 16.8429 17.2834 16.6253 16.9385C16.2431 16.3328 15.8834 16.3192 15.0137 16.8779C14.851 16.9824 14.6901 17.0679 14.6561 17.0679C14.6221 17.0679 14.5785 17.1524 14.5591 17.2558C14.5397 17.3591 14.4452 17.6452 14.349 17.8916C14.1589 18.378 14.1295 18.6746 14.2486 18.9035C14.4354 19.2627 14.7625 19.4059 15.9383 19.6432C16.4191 19.7402 16.9167 19.8512 17.044 19.8898C17.5508 20.0433 17.9979 20.4731 18.3449 21.1401C18.7579 21.9339 18.9718 21.9635 20.3798 21.4221C21.3424 21.052 21.6178 20.9755 21.9877 20.9759C22.5049 20.9764 22.7094 21.0547 23.418 21.5235L23.9114 21.85L24.0192 21.7018C24.2603 21.3706 24.6581 20.9922 24.9109 20.8537C25.1499 20.7227 25.2282 20.7064 25.63 20.7042C26.0474 20.7019 26.1126 20.7159 26.5067 20.8929C26.741 20.9981 27.0509 21.1276 27.1956 21.1806C27.5135 21.2973 27.6109 21.2563 27.7377 20.9529C28.091 20.108 28.5122 19.4123 28.8671 19.0877C29.0372 18.9322 29.4105 18.7833 29.8003 18.7154C30.1215 18.6594 31.0492 18.6813 31.2994 18.7506C31.4448 18.7909 31.4828 18.7088 31.6145 18.0699C31.6778 17.7624 31.7771 17.4501 31.8534 17.3184C32.0453 16.9867 32.5774 16.4879 33.1517 16.1015C33.9046 15.5949 33.8584 15.681 33.8826 14.7383C33.8995 14.0769 33.9224 13.8817 34.0134 13.6224C34.1312 13.2866 34.3726 12.9091 34.6775 12.584C34.881 12.367 35.2741 11.8539 35.2741 11.8053C35.2741 11.7888 35.1823 11.5628 35.0701 11.3029C34.5258 10.0425 34.4281 9.49047 34.6252 8.78808C34.6543 8.68427 34.8686 8.31594 35.1014 7.96956C35.4513 7.44892 35.5246 7.30609 35.5246 7.14547C35.5246 6.88345 35.4024 6.63536 35.0818 6.24644C34.6259 5.6933 34.3365 5.53188 34.1611 5.73292Z" fill="#EDA690"></path> <path fill-rule="evenodd" clip-rule="evenodd" d="M42.8493 0.46872C42.6624 0.562807 42.4829 0.660901 42.4506 0.686702C42.4183 0.712503 42.0425 0.913702 41.6154 1.13384C41.1883 1.35397 40.7543 1.58218 40.651 1.64094C40.5477 1.69966 40.3786 1.7955 40.2752 1.85381C40.1719 1.91213 40.0275 2.00231 39.9544 2.05421C39.8812 2.10611 39.8096 2.14855 39.7952 2.14855C39.7808 2.14855 39.5854 2.26127 39.3609 2.39905C39.1364 2.53682 38.9419 2.64954 38.9287 2.64954C38.9154 2.64954 38.7686 2.74182 38.6026 2.8546C38.2312 3.1068 37.4659 3.55133 37.4031 3.55133C37.3777 3.55133 37.3569 3.57387 37.3569 3.60143C37.3569 3.62898 37.3367 3.65153 37.312 3.65153C37.2872 3.65153 37.1186 3.74171 36.9371 3.85192C36.7557 3.96214 36.594 4.05232 36.5778 4.05232C36.5616 4.05232 36.45 4.11995 36.3299 4.20262C36.2098 4.28528 36.0974 4.35292 36.0802 4.35292C36.0629 4.35292 35.9204 4.43809 35.7635 4.54214C35.6066 4.6462 35.4219 4.75997 35.353 4.79489C35.2841 4.82981 35.1714 4.90276 35.1025 4.95701C34.9619 5.06763 34.9364 5.0259 35.3234 5.31948C35.7458 5.63992 36.2408 6.33164 36.3773 6.79205C36.5652 7.42646 36.4123 8.04057 35.9137 8.65259C35.4069 9.27482 35.3849 9.66604 35.8006 10.6654C36.0927 11.3679 36.2047 11.7579 36.2047 12.0733C36.2047 12.3362 36.1815 12.4115 36.0313 12.6359C35.936 12.7783 35.75 13.0088 35.618 13.1481C35.486 13.2875 35.3104 13.5016 35.2279 13.6241C35.1453 13.7465 35.0662 13.858 35.052 13.8718C35.0379 13.8856 34.9749 14.0236 34.9119 14.1786C34.8054 14.441 34.7999 14.505 34.8318 15.1105C34.8648 15.7347 34.8612 15.7713 34.7412 16.0311C34.6239 16.2851 34.3144 16.6773 34.2312 16.6773C34.2106 16.6773 34.0954 16.745 33.9752 16.8276C33.8551 16.9103 33.7346 16.9779 33.7074 16.9779C33.6802 16.9779 33.6504 16.9962 33.6412 17.0184C33.6321 17.0407 33.518 17.1316 33.3878 17.2204C33.2576 17.3091 33.0411 17.4935 32.9068 17.63C32.6853 17.855 32.6549 17.9148 32.5824 18.2673C32.5384 18.4812 32.4889 18.7464 32.4724 18.8567C32.4305 19.1355 32.2025 19.5341 32.0116 19.6623C31.7852 19.8144 31.5229 19.8529 30.6937 19.8559C30.0397 19.8584 29.9448 19.8701 29.7419 19.973C29.6179 20.0358 29.4821 20.1147 29.4402 20.1483C29.3376 20.2305 28.9586 20.8682 28.8828 21.0863C28.7807 21.3798 28.482 21.8541 28.3003 22.0111C28.0785 22.2028 27.8306 22.287 27.4874 22.287C27.2323 22.287 26.8844 22.2032 26.8036 22.1224C26.7847 22.1035 26.7403 22.0881 26.7047 22.0881C26.6693 22.0881 26.4983 22.0235 26.3248 21.9445C25.7308 21.6741 25.7367 21.6755 25.4876 21.7469C25.2516 21.8146 24.9619 22.0623 24.6392 22.4724C24.4572 22.7037 24.1163 22.8896 23.8741 22.8896C23.5532 22.8896 23.1872 22.735 22.9122 22.4831C22.862 22.4371 22.6366 22.3067 22.4112 22.1933C22.0682 22.0206 21.9532 21.9871 21.7045 21.9875C21.5411 21.9877 21.3382 22.0099 21.2536 22.0369C20.666 22.224 20.4358 22.3004 20.3482 22.3372C20.0828 22.4489 19.7726 22.5561 19.5317 22.6194C19.1682 22.715 18.531 22.7096 18.2878 22.6089C18.0343 22.5039 17.6633 22.0964 17.4445 21.6825C17.3484 21.5008 17.1959 21.2728 17.1057 21.1758C16.9491 21.0077 16.3562 20.6853 16.2036 20.6853C16.1639 20.6853 15.9868 20.6399 15.81 20.5844C15.6333 20.5289 15.3984 20.4575 15.2882 20.4259C14.8984 20.3139 14.2561 19.9708 14.058 19.7688C13.7483 19.4527 13.6099 19.1113 13.6099 18.6626C13.6099 18.4561 13.6471 18.1221 13.6925 17.9205C13.7379 17.719 13.7774 17.4887 13.7802 17.4088C13.7861 17.2387 13.7071 17.1859 13.0588 16.9268C12.2365 16.5981 11.9316 16.0902 11.9316 15.0491C11.9316 14.7736 11.9514 14.3758 11.9756 14.1651L12.0196 13.7821L11.4746 13.7393C10.3631 13.6519 4.9353 13.7389 4.43146 13.8521C4.31417 13.8785 4.29188 13.9139 4.26578 14.1152C4.2492 14.2431 4.21543 14.4492 4.19078 14.5732C4.073 15.166 3.89079 16.206 3.81774 16.7024C3.7732 17.0055 3.71424 17.3887 3.68678 17.5541C3.55542 18.3448 3.52511 20.9783 3.63638 21.9378C3.66354 22.172 3.69971 22.544 3.71674 22.7644C3.81809 24.0765 4.25666 26.3701 4.61241 27.4487C4.85164 28.1741 5.48444 29.5086 5.91895 30.2041C6.01364 30.3557 6.092 30.5079 6.09305 30.5423C6.0941 30.5768 6.11499 30.6049 6.13939 30.6049C6.16379 30.6049 6.22055 30.6782 6.26554 30.7678C6.6229 31.4794 8.10729 33.1473 8.90056 33.7286C9.07967 33.8598 9.26594 33.9997 9.31443 34.0395C9.36298 34.0793 9.41934 34.112 9.43968 34.1121C9.46007 34.1122 9.59554 34.2024 9.74073 34.3125C9.88596 34.4226 10.0212 34.5128 10.0413 34.5129C10.0615 34.513 10.1922 34.5975 10.3318 34.7007C10.4715 34.804 10.638 34.9187 10.7019 34.9558C10.8347 35.0328 11.0707 35.1667 11.3429 35.3196C11.4463 35.3776 11.5538 35.4438 11.582 35.4666C11.6377 35.5116 12.048 35.7345 12.4075 35.915C12.5315 35.9773 12.678 36.0519 12.7332 36.0808C13.2148 36.3335 13.6198 36.5083 13.9856 36.6213C14.1785 36.6809 14.3578 36.7494 14.3839 36.7735C14.4101 36.7976 14.4901 36.8172 14.5618 36.8172C14.6334 36.8172 14.7134 36.8369 14.7396 36.861C14.8152 36.9305 15.8725 37.1724 16.4155 37.2444C16.5394 37.2609 16.81 37.2977 17.0166 37.3263C17.2233 37.3549 17.9673 37.3892 18.6699 37.4025C20.1698 37.431 21.2722 37.3655 22.6403 37.1669C22.8263 37.1399 23.1363 37.0953 23.3292 37.0677C24.0447 36.9655 24.4134 36.9012 24.6818 36.8318C24.8334 36.7925 25.0701 36.7407 25.2079 36.7166C25.3456 36.6924 25.5598 36.6487 25.6838 36.6194C25.8078 36.5901 26.0107 36.5459 26.1347 36.5211C26.4559 36.4569 26.9938 36.3169 27.1116 36.267C27.1668 36.2436 27.2682 36.2102 27.3371 36.1929C27.7455 36.0901 28.0431 36.0025 28.2639 35.9203C28.4017 35.869 28.6159 35.7971 28.7399 35.7606C28.8639 35.7242 29.1776 35.6088 29.437 35.5043C29.6965 35.3998 29.9456 35.3143 29.9906 35.3143C30.0356 35.3143 30.0939 35.2952 30.1201 35.272C30.1463 35.2487 30.3009 35.177 30.4637 35.1127C30.8608 34.9557 32.1866 34.2807 32.6226 34.0136C32.8154 33.8955 33.0504 33.7548 33.1447 33.7009C33.4972 33.4995 34.5137 32.7723 34.6015 32.6588C34.6153 32.6409 34.708 32.5717 34.8076 32.5049C34.9071 32.4381 35.1126 32.2707 35.2642 32.133C35.4158 31.9952 35.6313 31.8086 35.7429 31.7183C36.0327 31.4842 37.0246 30.4957 37.4076 30.0594C37.5864 29.8558 37.8403 29.574 37.9718 29.4332C38.215 29.1727 38.2537 29.1257 38.6705 28.5831C38.8006 28.4138 38.9809 28.1873 39.0713 28.0797C39.2294 27.8917 39.5321 27.4755 39.6365 27.3029C39.664 27.2573 39.8214 27.0291 39.9862 26.7958C40.151 26.5625 40.3286 26.2926 40.3808 26.1962C40.433 26.0998 40.5375 25.9419 40.613 25.8455C40.6886 25.7491 40.7962 25.58 40.8523 25.4698C40.9083 25.3595 41.0453 25.1228 41.1567 24.9437C41.778 23.9452 42.6117 22.296 43.0436 21.2113C43.9673 18.8914 44.6297 16.1472 44.906 13.496C45.062 11.9996 45.0162 8.48631 44.8247 7.25867C44.8011 7.10712 44.7559 6.78023 44.7242 6.53223C44.5214 4.94238 44.1234 3.05009 43.7705 1.99825C43.6919 1.76404 43.5462 1.31314 43.4467 0.996266C43.3472 0.679388 43.2486 0.39257 43.2275 0.358903C43.1994 0.313763 43.1 0.342621 42.8493 0.46872ZM3.23934 14.4704C2.80148 15.0176 2.48896 15.4281 2.40925 15.5607C2.35604 15.6492 2.2091 15.8747 2.08275 16.0617C1.66858 16.6748 1.04665 17.8433 0.821855 18.4308C0.521159 19.2167 0.36024 19.754 0.212598 20.465C-0.0983686 21.9626 -0.0721667 22.9622 0.317405 24.4678C0.613392 25.6113 1.66688 27.5669 2.61065 28.7245C2.72222 28.8613 2.83605 29.0034 2.8636 29.04C2.89115 29.0768 2.96059 29.1572 3.01786 29.2188C3.07517 29.2804 3.1428 29.3668 3.16815 29.4108C3.23273 29.5229 4.10631 30.4622 4.46016 30.8002C5.2631 31.5669 5.30569 31.6048 6.095 32.2545C6.61518 32.6827 6.6007 32.6713 6.79639 32.808C6.97795 32.9349 6.95741 32.8827 6.72831 32.6346C6.54835 32.4398 5.91089 31.5774 5.63539 31.156C5.22287 30.5251 4.53817 29.2815 4.39784 28.9081C4.37059 28.8356 4.2774 28.6072 4.19078 28.4006C3.94053 27.8034 3.6963 27.0633 3.58794 26.5734C3.53288 26.3246 3.4669 26.0534 3.44129 25.9707C3.30157 25.5193 2.99711 23.734 2.83895 22.4388C2.63635 20.7798 2.63911 18.3265 2.84501 16.9529C2.99752 15.9358 3.2397 14.7759 3.36539 14.4604C3.41134 14.3453 3.33458 14.3514 3.23934 14.4704Z" fill="#F9CE99"></path> <path d="M14.5615 58.5342H14.8337L14.7717 58.8402C14.8056 58.7807 14.8746 58.7085 14.9786 58.6236C15.0836 58.5375 15.1929 58.4945 15.3065 58.4945C15.3118 58.4945 15.3208 58.4951 15.3336 58.4962C15.3463 58.4973 15.3675 58.4995 15.3972 58.5028L15.3336 58.8171C15.3166 58.8138 15.3012 58.8116 15.2874 58.8105C15.2736 58.8094 15.2582 58.8088 15.2412 58.8088C15.0969 58.8088 14.9759 58.8573 14.8783 58.9544C14.7817 59.0503 14.7202 59.1611 14.6937 59.2868L14.4867 60.3057H14.2002L14.5615 58.5342ZM17.843 58.8121C17.8823 58.9014 17.8992 59.0056 17.8939 59.1247C17.895 59.2063 17.8769 59.3364 17.8398 59.5151H16.5902C16.5584 59.6948 16.5695 59.8392 16.6237 59.9484C16.6789 60.0565 16.7866 60.1105 16.9468 60.1105C17.0964 60.1105 17.2259 60.0592 17.3352 59.9567C17.3989 59.8971 17.4493 59.8282 17.4864 59.7499H17.7682C17.7469 59.815 17.7072 59.8878 17.6488 59.9682C17.5915 60.0476 17.5315 60.1127 17.4689 60.1634C17.3639 60.2516 17.2439 60.3112 17.1092 60.342C17.0359 60.3597 16.9558 60.3685 16.8688 60.3685C16.6566 60.3685 16.4931 60.2886 16.3785 60.1287C16.2639 59.9677 16.2363 59.7428 16.2958 59.4539C16.3541 59.1694 16.4756 58.9384 16.6603 58.7608C16.8449 58.5833 17.0572 58.4945 17.297 58.4945C17.418 58.4945 17.5294 58.5243 17.6313 58.5839C17.7332 58.6423 17.8037 58.7184 17.843 58.8121ZM17.5931 59.2785C17.6079 59.1495 17.6021 59.0464 17.5756 58.9692C17.5268 58.8259 17.4106 58.7542 17.227 58.7542C17.0954 58.7542 16.9749 58.8038 16.8656 58.9031C16.7563 59.0012 16.6831 59.1264 16.646 59.2785H17.5931ZM20.5562 59.1297H20.2776C20.2829 59.0205 20.2627 58.9301 20.2171 58.8584C20.1715 58.7856 20.0818 58.7493 19.9481 58.7493C19.7656 58.7493 19.6159 58.8419 19.4992 59.0271C19.4239 59.1473 19.3682 59.2956 19.3321 59.472C19.295 59.6496 19.3003 59.799 19.348 59.9203C19.3958 60.0416 19.4971 60.1022 19.652 60.1022C19.7709 60.1022 19.8728 60.0647 19.9577 59.9898C20.0426 59.9137 20.1115 59.81 20.1646 59.6788H20.4432C20.3636 59.9137 20.249 60.0857 20.0993 60.1948C19.9497 60.3029 19.7757 60.3569 19.5772 60.3569C19.3544 60.3569 19.1936 60.2726 19.0949 60.1039C18.9973 59.9341 18.9745 59.7224 19.0265 59.4687C19.0901 59.1578 19.2121 58.9158 19.3926 58.7426C19.574 58.5695 19.7772 58.483 20.0022 58.483C20.1943 58.483 20.3402 58.5315 20.44 58.6285C20.5408 58.7255 20.5795 58.8926 20.5562 59.1297ZM22.9016 59.391C22.9356 59.2256 22.9377 59.0911 22.908 58.9874C22.8603 58.8242 22.7377 58.7426 22.5403 58.7426C22.3652 58.7426 22.2236 58.8121 22.1153 58.951C22.0081 59.09 21.9344 59.2576 21.894 59.4539C21.8559 59.6424 21.8632 59.7995 21.9163 59.9252C21.9704 60.0509 22.084 60.1138 22.257 60.1138C22.4469 60.1138 22.5923 60.0394 22.6931 59.8905C22.795 59.7405 22.8645 59.574 22.9016 59.391ZM23.2025 59.3827C23.1441 59.6683 23.029 59.9043 22.8571 60.0906C22.6852 60.277 22.4586 60.3702 22.1774 60.3702C21.9429 60.3702 21.7736 60.288 21.6696 60.1237C21.5656 59.9583 21.5417 59.7367 21.598 59.4588C21.6595 59.1611 21.781 58.924 21.9625 58.7476C22.1439 58.5712 22.3573 58.483 22.6024 58.483C22.8221 58.483 22.9918 58.559 23.1118 58.7112C23.2327 58.8634 23.263 59.0872 23.2025 59.3827ZM24.6661 58.5342H24.9383L24.8762 58.8402C24.9102 58.7807 24.9792 58.7085 25.0832 58.6236C25.1883 58.5375 25.2975 58.4945 25.4111 58.4945C25.4164 58.4945 25.4254 58.4951 25.4382 58.4962C25.4509 58.4973 25.4721 58.4995 25.5018 58.5028L25.4382 58.8171C25.4212 58.8138 25.4058 58.8116 25.392 58.8105C25.3782 58.8094 25.3628 58.8088 25.3458 58.8088C25.2015 58.8088 25.0805 58.8573 24.9829 58.9544C24.8863 59.0503 24.8248 59.1611 24.7982 59.2868L24.5913 60.3057H24.3048L24.6661 58.5342ZM27.0323 60.1088C27.1649 60.1088 27.2859 60.0498 27.3952 59.9319C27.5046 59.8128 27.582 59.6424 27.6276 59.4208C27.6732 59.1969 27.6632 59.0315 27.5974 58.9246C27.5316 58.8165 27.434 58.7625 27.3045 58.7625C27.1602 58.7625 27.0312 58.8198 26.9177 58.9345C26.8052 59.0492 26.7261 59.2179 26.6805 59.4406C26.6412 59.6303 26.6471 59.7891 26.698 59.917C26.75 60.0449 26.8615 60.1088 27.0323 60.1088ZM27.6133 58.5888C27.6579 58.6219 27.704 58.6798 27.7518 58.7625L27.9348 57.8677H28.2102L27.712 60.3057H27.4541L27.5035 60.0592C27.4143 60.1684 27.3188 60.2472 27.2169 60.2957C27.1161 60.3443 27.0068 60.3685 26.889 60.3685C26.6991 60.3685 26.5516 60.2858 26.4465 60.1204C26.3415 59.9539 26.3176 59.7328 26.3749 59.4572C26.4269 59.1991 26.5357 58.9759 26.7012 58.7873C26.8668 58.5976 27.0673 58.5028 27.3029 58.5028C27.4334 58.5028 27.5369 58.5315 27.6133 58.5888ZM29.3603 59.7499C29.3486 59.8492 29.3571 59.9252 29.3857 59.9782C29.4377 60.0741 29.5529 60.1221 29.7311 60.1221C29.8372 60.1221 29.9354 60.0984 30.0256 60.0509C30.1169 60.0024 30.1726 59.928 30.1928 59.8277C30.2087 59.7516 30.188 59.6937 30.1307 59.654C30.0946 59.6297 30.0187 59.6016 29.9031 59.5696L29.6882 59.5101C29.5502 59.4726 29.4515 59.4307 29.3921 59.3844C29.2849 59.3039 29.2462 59.1925 29.2759 59.0503C29.3099 58.8827 29.3953 58.747 29.5322 58.6434C29.6701 58.5398 29.8372 58.4879 30.0336 58.4879C30.2904 58.4879 30.4597 58.5662 30.5414 58.7228C30.5923 58.822 30.6051 58.929 30.5796 59.0437H30.309C30.3174 58.9764 30.3068 58.9152 30.2772 58.8601C30.2273 58.7818 30.1212 58.7426 29.9588 58.7426C29.8505 58.7426 29.7641 58.7641 29.6993 58.8071C29.6357 58.8501 29.5964 58.9069 29.5815 58.9775C29.5656 59.0547 29.5895 59.1164 29.6531 59.1628C29.6903 59.1903 29.7481 59.2146 29.8266 59.2355L30.0065 59.2835C30.2018 59.3353 30.3297 59.3855 30.3901 59.434C30.4856 59.5101 30.5164 59.6297 30.4825 59.7929C30.4507 59.9506 30.3652 60.0868 30.2262 60.2015C30.0882 60.3161 29.9015 60.3735 29.6659 60.3735C29.4123 60.3735 29.2446 60.3139 29.1629 60.1948C29.0822 60.0747 29.0562 59.9263 29.0849 59.7499H29.3603Z" fill="white"></path> <path fill-rule="evenodd" clip-rule="evenodd" d="M22.8275 40.3333C22.7586 40.4316 22.7497 40.9059 22.7497 44.4532C22.7497 48.2254 22.7549 48.4683 22.8388 48.572C22.9252 48.6788 22.958 48.6822 23.8985 48.6815C24.7686 48.6808 24.8757 48.6716 24.9336 48.5923C24.9852 48.5216 24.9983 47.6855 24.9983 44.4416C24.9983 40.8153 24.9898 40.3709 24.9198 40.3007C24.8538 40.2347 24.6866 40.2222 23.8732 40.2222C22.9296 40.2222 22.9033 40.225 22.8275 40.3333ZM10.0577 42.372C9.62212 42.426 9.15662 42.5862 8.73723 42.8266C8.4741 42.9774 8.38111 43.0097 8.34908 42.9612C8.32594 42.9261 8.25958 42.8227 8.20162 42.7313C8.14371 42.6399 8.04142 42.5442 7.97441 42.5187C7.9074 42.4932 7.52175 42.4724 7.1174 42.4724C6.53292 42.4724 6.35953 42.4883 6.27124 42.5502L6.16016 42.628V45.5678C6.16016 48.3522 6.165 48.5118 6.25155 48.5902C6.3308 48.662 6.48845 48.6729 7.4383 48.6722C8.04072 48.6718 8.56739 48.6501 8.60861 48.6241C8.67242 48.5837 8.68726 48.2854 8.70855 46.6133L8.73353 44.6499L9.03335 44.5048C9.24256 44.4035 9.4162 44.3579 9.60798 44.3536C9.87437 44.3478 9.88551 44.3529 9.97015 44.5226C10.0488 44.68 10.0575 44.8891 10.0576 46.6025C10.0577 48.4122 10.0624 48.5117 10.1529 48.5937C10.2371 48.67 10.3764 48.6797 11.3646 48.6783C12.4455 48.6768 12.484 48.6733 12.5686 48.5693C12.6485 48.4711 12.6561 48.2965 12.6561 46.5492V44.6364L13.0297 44.4795C13.4717 44.2938 13.7006 44.2791 13.8351 44.4278C13.9244 44.5264 13.9318 44.6559 13.9552 46.5262C13.9771 48.2707 13.9903 48.5295 14.0607 48.6C14.1299 48.6692 14.2982 48.6805 15.259 48.6805C16.3481 48.6805 16.379 48.6777 16.4652 48.5712C16.5466 48.4705 16.5536 48.298 16.5536 46.3966C16.5536 44.1549 16.5226 43.8012 16.286 43.3399C15.9054 42.5979 15.0453 42.2399 13.9659 42.3742C13.4879 42.4336 13.0595 42.5825 12.5056 42.882L12.1194 43.0907L11.9581 42.9069C11.8672 42.8033 11.6408 42.6477 11.4394 42.5505C11.0371 42.3564 10.6193 42.3024 10.0577 42.372ZM19.1444 42.3727C18.5257 42.471 18.0118 42.7611 17.5148 43.2928C16.9329 43.9154 16.6646 44.7335 16.7184 45.7218C16.7871 46.9833 17.3615 47.9279 18.3568 48.4162C19.02 48.7416 19.2999 48.7979 20.2263 48.7922C21.0949 48.787 21.5069 48.7103 22.1013 48.4434C22.3587 48.3278 22.4903 48.2871 22.5523 48.105C22.6209 47.9036 22.5296 47.8824 22.3289 47.3768C22.1935 47.0359 22.0783 46.8236 21.9948 46.7612C21.8691 46.6673 21.8626 46.6675 21.5465 46.7694C20.9233 46.9704 20.1726 46.9915 19.7202 46.8208C19.5504 46.7567 19.2519 46.4808 19.2519 46.3879C19.2519 46.3357 19.5696 46.3227 20.8498 46.3227H22.4476L22.5311 46.1952C22.6658 45.9895 22.6025 44.8728 22.4263 44.3451C22.1089 43.3948 21.537 42.7816 20.695 42.4885C20.3061 42.3532 19.5994 42.3004 19.1444 42.3727ZM28.0698 42.371C26.7529 42.5586 25.7761 43.387 25.4443 44.5976C25.3085 45.0932 25.2968 46.0267 25.4206 46.4978C25.7108 47.6019 26.5089 48.3934 27.6466 48.7054C28.1596 48.846 29.3918 48.8332 29.9184 48.6818C30.9645 48.381 31.704 47.6869 32.0278 46.7017C32.1469 46.3392 32.1605 46.2234 32.1602 45.5727C32.1599 44.9079 32.148 44.8126 32.0175 44.4267C31.6827 43.4368 30.9563 42.7708 29.8863 42.4728C29.4669 42.3561 28.5394 42.3041 28.0698 42.371ZM36.1413 42.372C35.7185 42.4244 35.2468 42.5848 34.8421 42.8137C34.6634 42.9148 34.5035 43.0039 34.4866 43.0118C34.4698 43.0197 34.4275 42.9574 34.3927 42.8733C34.3579 42.7892 34.2631 42.6646 34.1822 42.5964C34.0398 42.4765 34.0101 42.4724 33.2892 42.4724C32.6101 42.4724 32.5346 42.4813 32.4436 42.5724C32.346 42.6701 32.3437 42.7391 32.3437 45.5671C32.3437 48.2496 32.35 48.4697 32.4311 48.5697C32.5157 48.674 32.5531 48.6774 33.589 48.6773C34.497 48.6772 34.6713 48.6653 34.7382 48.5984C34.8069 48.5297 34.8189 48.2673 34.8312 46.5771L34.8454 44.6347L35.156 44.493C35.3814 44.3902 35.5471 44.3508 35.7599 44.3494C36.0442 44.3476 36.056 44.3529 36.1472 44.5218C36.2345 44.6836 36.2412 44.8306 36.2412 46.579C36.2412 48.3302 36.2476 48.4698 36.3328 48.5751C36.4232 48.6869 36.4379 48.6882 37.4946 48.6791C38.5227 48.6704 38.5683 48.6658 38.655 48.5625C38.7396 48.4617 38.7442 48.3161 38.7284 46.2262C38.7123 44.0765 38.7077 43.9857 38.6002 43.6646C38.2617 42.6543 37.4226 42.2132 36.1413 42.372ZM20.0001 44.2461C20.1118 44.3652 20.2624 44.808 20.2173 44.8851C20.1882 44.935 19.1647 44.9336 19.1338 44.8837C19.0889 44.811 19.2938 44.3 19.4036 44.2111C19.5671 44.0785 19.8588 44.0957 20.0001 44.2461ZM29.3378 44.4184C29.5324 44.5226 29.7868 44.879 29.8475 45.1323C29.9316 45.4828 29.8864 46.0482 29.7536 46.3073C29.4343 46.9307 28.4743 47.0712 27.9527 46.571C27.7327 46.3601 27.6231 46.0364 27.6232 45.5977C27.6233 44.996 27.7921 44.6338 28.1647 44.4359C28.4523 44.2831 29.0681 44.274 29.3378 44.4184ZM11.232 49.2043C11.177 49.2151 11.0084 49.2487 10.8572 49.2789C10.5369 49.3428 10.0115 49.5563 9.71752 49.742L9.51164 49.872L9.37953 49.6464C9.30682 49.5223 9.20633 49.3988 9.15612 49.3719C9.10595 49.345 8.70715 49.323 8.26988 49.323C7.52515 49.323 7.46878 49.3297 7.37964 49.4282C7.2889 49.5285 7.28375 49.6602 7.26941 52.241C7.26116 53.7301 7.26811 55.0439 7.2849 55.1605C7.33751 55.5264 7.32757 55.5236 8.57943 55.5236C9.59424 55.5236 9.69972 55.5156 9.77513 55.4321C9.84908 55.3504 9.85783 55.1367 9.85783 53.4144V51.488L10.1991 51.3306C10.4267 51.2257 10.6177 51.1732 10.7726 51.1732C11.1874 51.1732 11.1796 51.1327 11.1967 53.3947C11.2096 55.1045 11.2214 55.3566 11.2919 55.4346C11.3645 55.5149 11.4809 55.5235 12.4764 55.5229C13.0836 55.5224 13.609 55.504 13.6438 55.4818C13.782 55.3941 13.8056 55.06 13.7983 53.2984L13.7908 51.4982L14.0854 51.3531C14.2474 51.2733 14.4958 51.1976 14.6374 51.1848C14.8762 51.1633 14.9014 51.1718 14.9871 51.3026C15.0719 51.4319 15.0816 51.606 15.1045 53.401C15.1244 54.9583 15.1435 55.3753 15.1981 55.441C15.2581 55.5133 15.4063 55.5236 16.3848 55.5236C17.4494 55.5236 17.508 55.5187 17.6065 55.42C17.7088 55.3177 17.7099 55.288 17.6917 53.0823C17.6742 50.9583 17.668 50.8324 17.5662 50.5287C17.4263 50.1111 17.2015 49.7881 16.8905 49.5578C16.5324 49.2927 16.1892 49.2029 15.5293 49.2017C14.8441 49.2004 14.5076 49.2867 13.7986 49.6453L13.2672 49.9141L13.0823 49.7246C12.6757 49.3079 11.8642 49.0797 11.232 49.2043ZM26.223 49.2484C25.469 49.4055 24.813 49.8845 24.6121 50.4247C24.3906 51.0202 24.4269 51.7312 24.7035 52.2159C24.9482 52.6447 25.515 52.9964 26.6109 53.3996C27.0469 53.5599 27.2667 53.667 27.3043 53.7374C27.3893 53.8963 27.2398 53.9736 26.8501 53.9726C26.3955 53.9714 25.9732 53.8717 25.2738 53.6004C24.3805 53.2539 24.3468 53.2885 24.4721 54.4265C24.5341 54.9895 24.572 55.169 24.6441 55.2412C24.7634 55.3608 25.5455 55.5636 26.1219 55.6244C27.5395 55.7739 28.4501 55.5924 29.0444 55.0417C29.4361 54.6789 29.5575 54.3935 29.5843 53.7734C29.6013 53.3787 29.587 53.2512 29.4997 53.0194C29.283 52.4436 28.8321 52.0947 27.7212 51.6431C26.9501 51.3296 26.7472 51.2114 26.7472 51.0759C26.7472 50.9068 26.8757 50.8586 27.2599 50.8837C27.5757 50.9043 27.6958 50.9442 28.2062 51.1977C28.779 51.4823 28.7932 51.4865 28.9194 51.4037L29.0481 51.3193L29.0344 50.4837L29.0207 49.6481L28.7959 49.5365C28.1866 49.2342 26.9536 49.0961 26.223 49.2484ZM29.878 49.2645C29.803 49.3474 29.7953 49.6346 29.7953 52.357C29.7953 55.2009 29.8001 55.3624 29.8867 55.4408C29.9649 55.5118 30.1142 55.5236 30.9282 55.5236C31.7853 55.5236 31.8865 55.5147 31.9611 55.4321C32.0361 55.3492 32.0438 55.0632 32.0438 52.3562V49.3716L31.8814 49.2725C31.7358 49.1836 31.6282 49.1734 30.8399 49.1732C30.0514 49.173 29.9521 49.1825 29.878 49.2645ZM34.78 49.2216C34.0788 49.3489 33.4955 49.6608 33.055 50.1441C32.7222 50.5092 32.5843 50.7469 32.4146 51.2482C32.238 51.7693 32.1906 52.7408 32.3133 53.3234C32.6477 54.9115 34.0735 55.8361 35.8796 55.636C36.3426 55.5847 37.1448 55.3703 37.2777 55.2624C37.3672 55.1896 37.4234 54.9367 37.5179 54.1805C37.6427 53.1819 37.5672 53.0983 36.8158 53.4036C36.4483 53.5529 36.2839 53.5907 35.9164 53.6102C35.3616 53.6397 35.0979 53.5737 34.8402 53.3408C34.609 53.1317 34.5429 52.9327 34.5426 52.4438C34.5419 51.5577 34.9353 51.0732 35.6555 51.0732C36.0435 51.0732 36.3881 51.1704 36.9249 51.4316C37.2674 51.5981 37.3508 51.6212 37.4394 51.5738C37.5937 51.4911 37.6316 51.339 37.5888 50.9732C37.5679 50.7944 37.5352 50.4518 37.5162 50.2118C37.4705 49.6353 37.4241 49.5805 36.8051 49.3726C36.3693 49.2263 36.2456 49.2068 35.6666 49.1935C35.3093 49.1853 34.9103 49.198 34.78 49.2216ZM17.9257 49.4441C17.8556 49.5512 17.8483 49.8324 17.863 51.8818C17.8793 54.1649 17.8812 54.2026 17.9947 54.4861C18.3362 55.339 19.0846 55.7328 20.2102 55.6518C20.7173 55.6153 21.1302 55.491 21.6504 55.218C21.9841 55.043 22.0306 55.0305 22.0751 55.1035C22.1026 55.1487 22.1709 55.256 22.227 55.3421L22.3288 55.4986L23.1877 55.5123C23.9931 55.5251 24.0528 55.5197 24.1476 55.4248C24.2468 55.3255 24.2488 55.268 24.2488 52.47C24.2488 49.6177 24.2407 49.4694 24.0789 49.3613C24.0486 49.3411 23.5573 49.3242 22.9871 49.3238C22.0163 49.3231 21.9439 49.3294 21.8503 49.423C21.7538 49.5195 21.7503 49.5897 21.7503 51.4407V53.3584L21.4175 53.5C21.2344 53.5778 20.9702 53.651 20.8303 53.6626C20.6157 53.6804 20.5603 53.6665 20.476 53.5734C20.3807 53.4681 20.375 53.3736 20.3512 51.4982C20.3278 49.6559 20.3203 49.5268 20.231 49.4282C20.1399 49.3276 20.0898 49.323 19.0704 49.323H18.005L17.9257 49.4441Z" fill="white"></path> </svg> 